<svg xmlns="http://www.w3.org/2000/svg" viewBox="0 0 32 32" width="32" height="32">
  <defs>
    <linearGradient id="grad1" x1="0%" y1="0%" x2="100%" y2="100%">
      <stop offset="0%" style="stop-color:#667eea;stop-opacity:1" />
      <stop offset="100%" style="stop-color:#764ba2;stop-opacity:1" />
    </linearGradient>
  </defs>
  
  <!-- Background circle -->
  <circle cx="16" cy="16" r="15" fill="url(#grad1)" stroke="#fff" stroke-width="1"/>
  
  <!-- Microphone body -->
  <rect x="13" y="8" width="6" height="10" rx="3" fill="#fff"/>
  
  <!-- Microphone stand -->
  <rect x="15.5" y="18" width="1" height="4" fill="#fff"/>
  
  <!-- Microphone base -->
  <rect x="12" y="22" width="8" height="1.5" rx="0.5" fill="#fff"/>
  
  <!-- Sound waves -->
  <path d="M 20 12 Q 23 14 23 16 Q 23 18 20 20" stroke="#fff" stroke-width="1.5" fill="none" opacity="0.8"/>
  <path d="M 22 10 Q 26 13 26 16 Q 26 19 22 22" stroke="#fff" stroke-width="1.5" fill="none" opacity="0.6"/>
  
  <!-- Left sound waves -->
  <path d="M 12 12 Q 9 14 9 16 Q 9 18 12 20" stroke="#fff" stroke-width="1.5" fill="none" opacity="0.8"/>
  <path d="M 10 10 Q 6 13 6 16 Q 6 19 10 22" stroke="#fff" stroke-width="1.5" fill="none" opacity="0.6"/>
</svg>
